<?xml version="1.0" encoding="utf-8"?>
<!-- Generator: Adobe Illustrator 16.0.0, SVG Export Plug-In . SVG Version: 6.00 Build 0)  -->
<!DOCTYPE svg PUBLIC "-//W3C//DTD SVG 1.1//EN" "http://www.w3.org/Graphics/SVG/1.1/DTD/svg11.dtd">
<svg version="1.1" id="Camada_1" xmlns="http://www.w3.org/2000/svg" xmlns:xlink="http://www.w3.org/1999/xlink" x="0px" y="0px"
	 width="186px" height="186px" viewBox="0 0 186 186" enable-background="new 0 0 186 186" xml:space="preserve">
<filter  width="300%" height="300%" id="uil-ring-shadow" x="-100%" y="-100%">
	<feOffset  dx="0" in="SourceGraphic" dy="0" result="offOut"></feOffset>
	<feGaussianBlur  stdDeviation="0" in="offOut" result="blurOut"></feGaussianBlur>
	<feBlend  mode="normal" in="SourceGraphic" in2="blurOut"></feBlend>
</filter>
<rect fill="none" width="186" height="186"/>
<g filter="url(#uil-ring-shadow)">
	<path fill="#0076A4" d="M18.6,93c0,0,0,0.93,0.186,2.604c0,0.931,0.186,1.86,0.372,3.162c0,0.559,0.186,1.303,0.186,2.047
		c0.186,0.744,0.186,1.487,0.372,2.231c0.372,1.488,0.558,3.349,0.93,5.208c0.558,1.859,1.116,3.906,1.674,5.952
		c0.558,2.046,1.674,4.278,2.604,6.51c0.93,2.231,2.232,4.464,3.348,6.882c0.558,1.116,1.488,2.232,2.232,3.534
		c0.744,1.116,1.488,2.418,2.418,3.534c1.86,2.232,3.534,4.836,5.766,6.882c4.092,4.649,9.3,8.742,14.694,12.462
		c5.58,3.721,12.09,6.324,18.786,8.557c6.696,2.045,13.95,2.789,20.832,2.976c7.439-0.187,14.322-1.116,21.018-2.976
		c6.696-2.232,13.021-4.836,18.601-8.557c5.58-3.72,10.788-7.813,14.694-12.462c2.231-2.231,3.905-4.649,5.766-6.882
		c0.93-1.116,1.674-2.418,2.418-3.534s1.488-2.418,2.232-3.534c1.115-2.418,2.418-4.65,3.348-6.882s1.859-4.464,2.604-6.51
		c0.559-2.046,1.116-4.093,1.674-5.952c0.373-1.859,0.744-3.534,0.931-5.208c0.187-0.744,0.187-1.487,0.372-2.231
		c0-0.744,0.186-1.303,0.186-2.047c0.186-1.302,0.186-2.231,0.372-3.162C167.4,93.93,167.4,93,167.4,93s0,0.93,0,2.604
		c0,0.931,0,1.86,0,3.162c0,0.559,0,1.303,0,2.047s-0.187,1.487-0.187,2.231c-0.187,1.674-0.372,3.349-0.743,5.208
		c-0.373,1.859-0.931,3.906-1.303,6.139c-0.559,2.231-1.488,4.463-2.232,6.881c-0.371,1.303-0.93,2.418-1.487,3.535
		c-0.558,1.301-1.116,2.418-1.675,3.719c-0.558,1.303-1.301,2.418-2.045,3.721c-0.744,1.302-1.303,2.604-2.232,3.72
		c-1.859,2.418-3.534,5.022-5.766,7.44c-4.092,5.021-9.301,9.3-15.066,13.205c-1.488,0.931-2.977,1.861-4.464,2.791
		c-1.488,0.93-3.162,1.674-4.836,2.418l-2.604,1.302l-2.604,0.93c-1.674,0.558-3.348,1.302-5.208,1.86
		c-7.068,2.046-14.694,3.162-21.948,3.348l-5.58-0.371c-1.86,0-3.72-0.373-5.58-0.559l-2.79-0.372l-1.302-0.187l-1.302-0.371
		c-1.86-0.559-3.534-0.93-5.394-1.303c-1.674-0.558-3.534-1.302-5.208-1.859l-2.604-1.116l-2.418-1.116
		c-1.674-0.744-3.348-1.488-4.836-2.418c-1.488-0.93-2.976-1.859-4.464-2.79c-5.766-3.905-10.974-8.37-15.066-13.206
		c-2.232-2.232-3.906-5.021-5.766-7.439c-0.93-1.116-1.488-2.604-2.232-3.721c-0.744-1.302-1.488-2.418-2.046-3.72
		s-1.116-2.418-1.674-3.72c-0.558-1.303-1.116-2.418-1.488-3.534c-0.744-2.418-1.674-4.649-2.232-6.882s-0.93-4.278-1.302-6.139
		c-0.372-1.859-0.558-3.72-0.744-5.207c-0.186-0.744-0.186-1.488-0.186-2.232s0-1.303,0-2.046c0-1.302,0-2.231,0-3.162
		C18.6,93.93,18.6,93,18.6,93z"/>
	
		<animateTransform  type="rotate" fill="remove" repeatCount="indefinite" calcMode="linear" restart="always" to="360 50 50" from="0 50 50" additive="replace" dur="1s" accumulate="none" attributeName="transform">
		</animateTransform>
</g>
</svg>
